<svg width="339" height="97" viewBox="0 0 339 97" fill="none" xmlns="http://www.w3.org/2000/svg">
<rect x="5.5" y="5.5" width="136" height="86" fill="#FFFEFE" stroke="black" stroke-width="11"/>
<path d="M71.5 27.6227L78.7784 43.6231L79.1782 44.502H80.1438H101.969L84.795 53.4145L83.5308 54.0706L84.1206 55.367L90.9663 70.4163L72.1909 60.6727L71.5 60.3141L70.8091 60.6727L52.0337 70.4163L58.8794 55.367L59.4692 54.0706L58.205 53.4145L41.0312 44.502H62.8562H63.8218L64.2216 43.6231L71.5 27.6227Z" fill="url(#paint0_linear_5_11)" stroke="black" stroke-width="3"/>
<path d="M30 37L48.1865 76H11.8135L30 37Z" fill="#285434"/>
<path d="M114 37L132.187 76H95.8135L114 37Z" fill="#285434"/>
<path d="M192.88 51.96C192.88 53.5867 192.507 55.08 191.76 56.44C191.013 57.7733 189.867 58.8533 188.32 59.68C186.773 60.5067 184.853 60.92 182.56 60.92H178.32V71H171.48V42.92H182.56C184.8 42.92 186.693 43.3067 188.24 44.08C189.787 44.8533 190.947 45.92 191.72 47.28C192.493 48.64 192.88 50.2 192.88 51.96ZM182.04 55.48C183.347 55.48 184.32 55.1733 184.96 54.56C185.6 53.9467 185.92 53.08 185.92 51.96C185.92 50.84 185.6 49.9733 184.96 49.36C184.32 48.7467 183.347 48.44 182.04 48.44H178.32V55.48H182.04ZM217.481 59.48C217.481 60.12 217.441 60.7867 217.361 61.48H201.881C201.988 62.8667 202.428 63.9333 203.201 64.68C204.001 65.4 204.974 65.76 206.121 65.76C207.828 65.76 209.014 65.04 209.681 63.6H216.961C216.588 65.0667 215.908 66.3867 214.921 67.56C213.961 68.7333 212.748 69.6533 211.281 70.32C209.814 70.9867 208.174 71.32 206.361 71.32C204.174 71.32 202.228 70.8533 200.521 69.92C198.814 68.9867 197.481 67.6533 196.521 65.92C195.561 64.1867 195.081 62.16 195.081 59.84C195.081 57.52 195.548 55.4933 196.481 53.76C197.441 52.0267 198.774 50.6933 200.481 49.76C202.188 48.8267 204.148 48.36 206.361 48.36C208.521 48.36 210.441 48.8133 212.121 49.72C213.801 50.6267 215.108 51.92 216.041 53.6C217.001 55.28 217.481 57.24 217.481 59.48ZM210.481 57.68C210.481 56.5067 210.081 55.5733 209.281 54.88C208.481 54.1867 207.481 53.84 206.281 53.84C205.134 53.84 204.161 54.1733 203.361 54.84C202.588 55.5067 202.108 56.4533 201.921 57.68H210.481ZM243.129 48.68V71H236.289V67.96C235.596 68.9467 234.649 69.7467 233.449 70.36C232.276 70.9467 230.969 71.24 229.529 71.24C227.823 71.24 226.316 70.8667 225.009 70.12C223.703 69.3467 222.689 68.24 221.969 66.8C221.249 65.36 220.889 63.6667 220.889 61.72V48.68H227.689V60.8C227.689 62.2933 228.076 63.4533 228.849 64.28C229.623 65.1067 230.663 65.52 231.969 65.52C233.303 65.52 234.356 65.1067 235.129 64.28C235.903 63.4533 236.289 62.2933 236.289 60.8V48.68H243.129ZM254.883 41.4V71H248.043V41.4H254.883ZM266.679 41.4V71H259.839V41.4H266.679ZM270.276 59.8C270.276 57.5067 270.703 55.4933 271.556 53.76C272.436 52.0267 273.623 50.6933 275.116 49.76C276.61 48.8267 278.276 48.36 280.116 48.36C281.69 48.36 283.063 48.68 284.236 49.32C285.436 49.96 286.356 50.8 286.996 51.84V48.68H293.836V71H286.996V67.84C286.33 68.88 285.396 69.72 284.196 70.36C283.023 71 281.65 71.32 280.076 71.32C278.263 71.32 276.61 70.8533 275.116 69.92C273.623 68.96 272.436 67.6133 271.556 65.88C270.703 64.12 270.276 62.0933 270.276 59.8ZM286.996 59.84C286.996 58.1333 286.516 56.7867 285.556 55.8C284.623 54.8133 283.476 54.32 282.116 54.32C280.756 54.32 279.596 54.8133 278.636 55.8C277.703 56.76 277.236 58.0933 277.236 59.8C277.236 61.5067 277.703 62.8667 278.636 63.88C279.596 64.8667 280.756 65.36 282.116 65.36C283.476 65.36 284.623 64.8667 285.556 63.88C286.516 62.8933 286.996 61.5467 286.996 59.84Z" fill="black"/>
<defs>
<linearGradient id="paint0_linear_5_11" x1="74.7941" y1="48.5455" x2="51.7819" y2="63.4357" gradientUnits="userSpaceOnUse">
<stop stop-color="#2DADE4"/>
<stop offset="0.247383" stop-color="#A8D9EF"/>
<stop offset="1" stop-color="#F5F5F5"/>
</linearGradient>
</defs>
</svg>
